<svg version="1.1" xmlns="http://www.w3.org/2000/svg" xmlns:xlink="http://www.w3.org/1999/xlink" width="119.03442" height="119.0371" viewBox="0,0,119.03442,119.0371"><g transform="translate(-180.48279,-120.48145)"><g data-paper-data="{&quot;isPaintingLayer&quot;:true}" fill-rule="nonzero" stroke="none" stroke-width="1" stroke-linecap="butt" stroke-linejoin="miter" stroke-miterlimit="10" stroke-dasharray="" stroke-dashoffset="0" style="mix-blend-mode: normal"><path d="M295.13715,239.51855c-1.12068,0 -2.24135,-0.42827 -3.0979,-1.28126l-109.35795,-109.36152c-1.70956,-1.70956 -1.70956,-4.48623 0,-6.19579c1.70956,-1.70956 4.48623,-1.70956 6.19579,0l109.35795,109.35795c1.70956,1.70956 1.70956,4.48623 0,6.19579c-0.85657,0.853 -1.97724,1.28484 -3.0979,1.28484z" fill="#d99e82"/><path d="M228.67867,144.57939c0,13.30884 -10.78911,24.09794 -24.09794,24.09794c-13.30884,0 -24.09794,-10.78911 -24.09794,-24.09794c0,-13.30884 10.78911,-24.09794 24.09794,-24.09794c13.30884,0 24.09794,10.78911 24.09794,24.09794z" fill="#fcb1e3"/><path d="M225.33836,194.3287c-12.95272,-3.05854 -20.97351,-16.03825 -17.91496,-28.99095c3.05854,-12.95272 16.03825,-20.97351 28.99095,-17.91496c12.95272,3.05854 20.97351,16.03825 17.91496,28.99095c-3.05854,12.95272 -16.03825,20.97351 -28.99095,17.91496z" fill="#ffd983"/><path d="M281.26085,197.15802c0,13.30884 -10.79268,24.1015 -24.1015,24.1015c-13.30884,0 -24.09794,-10.79268 -24.09794,-24.1015c0,-13.30884 10.78911,-24.09794 24.09794,-24.09794c13.30884,0 24.1015,10.79268 24.1015,24.09794z" fill="#a6d388"/><path d="M295.13715,239.51855c-1.12068,0 -2.24135,-0.42827 -3.0979,-1.28126l-26.83893,-26.83893c-1.71313,-1.70956 -1.71313,-4.48623 0,-6.19579c1.71313,-1.70956 4.48266,-1.70956 6.19579,0l26.83893,26.83893c1.70956,1.70956 1.70956,4.48623 0,6.19579c-0.85657,0.84942 -1.97724,1.28126 -3.0979,1.28126z" fill="#d99e82"/></g></g></svg>